<?xml version="1.0" standalone="no"?>
<!DOCTYPE svg PUBLIC "-//W3C//DTD SVG 20010904//EN"
 "http://www.w3.org/TR/2001/REC-SVG-20010904/DTD/svg10.dtd">
<svg version="1.0" xmlns="http://www.w3.org/2000/svg"
 width="200.000000pt" height="200.000000pt" viewBox="0 0 200.000000 200.000000"
 preserveAspectRatio="xMidYMid meet">

<g transform="translate(0.000000,200.000000) scale(0.100000,-0.100000)"
fill="#000000" stroke="none">
<path d="M1197 1989 c-24 -14 -56 -79 -62 -131 l-5 -43 14 50 c8 28 15 53 16
57 0 3 12 20 26 37 34 41 61 40 79 -1 8 -18 14 -26 15 -18 0 24 -29 60 -48 60
-9 0 -25 -5 -35 -11z"/>
<path d="M796 1968 c-24 -33 -19 -45 5 -14 26 34 54 33 73 -1 8 -16 15 -23 16
-18 0 22 -32 55 -55 55 -13 0 -31 -10 -39 -22z"/>
<path d="M766 1898 c-3 -13 -5 -34 -5 -48 1 -15 5 -7 10 19 9 47 6 68 -5 29z"/>
<path d="M891 1904 c0 -11 3 -14 6 -6 3 7 2 16 -1 19 -3 4 -6 -2 -5 -13z"/>
<path d="M1277 1788 c-4 -74 -22 -229 -42 -348 -19 -118 -35 -235 -34 -260 1
-44 4 -28 58 330 20 128 40 410 29 410 -3 0 -8 -60 -11 -132z"/>
<path d="M902 1855 c0 -16 2 -22 5 -12 2 9 2 23 0 30 -3 6 -5 -1 -5 -18z"/>
<path d="M752 1730 c-1 -52 5 -158 13 -235 21 -197 36 -499 34 -708 -1 -98 1
-181 5 -184 3 -4 6 30 6 75 0 80 0 81 28 85 l27 4 -27 2 c-27 1 -28 3 -28 56
0 46 3 55 18 55 16 1 16 1 0 14 -15 11 -18 29 -18 97 0 108 -16 349 -31 464
-6 50 -15 153 -19 230 -6 130 -7 133 -8 45z"/>
<path d="M917 1605 l4 -210 87 4 c48 2 90 5 95 8 4 2 6 55 5 116 l-2 112 -3
-97 c-2 -54 -7 -98 -11 -98 -16 1 -42 29 -42 46 -1 18 -1 18 -11 2 -14 -25
-45 -22 -64 5 -15 20 -16 21 -13 2 1 -11 -1 -26 -5 -32 -20 -32 -27 -5 -28
110 -1 67 -4 149 -8 182 -4 33 -6 -34 -4 -150z m138 -154 c3 -5 -5 -12 -17
-14 -17 -3 -15 -5 9 -6 54 -2 49 -21 -5 -21 -27 0 -64 -3 -81 -6 -20 -4 -31
-3 -31 5 0 6 7 11 16 11 8 0 12 5 8 11 -3 6 0 15 7 20 19 12 86 11 94 0z"/>
<path d="M1122 1780 c0 -19 2 -27 5 -17 2 9 2 25 0 35 -3 9 -5 1 -5 -18z"/>
<path d="M816 1725 c-3 -9 -5 -53 -4 -98 l2 -82 5 88 c3 48 11 88 16 90 18 4
35 -114 29 -195 -4 -43 -10 -78 -15 -78 -4 0 -11 20 -15 45 -3 25 -9 44 -12
41 -6 -7 18 -128 29 -140 24 -27 32 260 8 308 -17 35 -34 43 -43 21z"/>
<path d="M1179 1724 c-20 -24 -27 -328 -8 -322 14 5 51 132 46 158 -1 8 -11
-21 -22 -65 l-20 -80 -3 126 c-3 126 7 184 30 177 7 -3 16 -15 20 -29 6 -19 6
-18 5 11 -2 40 -25 51 -48 24z"/>
<path d="M1113 1685 c0 -27 2 -38 4 -22 2 15 2 37 0 50 -2 12 -4 0 -4 -28z"/>
<path d="M1222 1620 c0 -19 2 -27 5 -17 2 9 2 25 0 35 -3 9 -5 1 -5 -18z"/>
<path d="M964 1555 c-9 -14 -14 -28 -11 -32 4 -3 11 6 16 21 15 38 48 35 66
-6 11 -26 14 -28 15 -12 0 24 -29 54 -53 54 -9 0 -24 -11 -33 -25z"/>
<path d="M920 1245 c0 -8 7 -15 15 -15 8 0 15 7 15 15 0 8 -7 15 -15 15 -8 0
-15 -7 -15 -15z"/>
<path d="M1067 1254 c-8 -8 3 -34 14 -34 11 0 12 27 0 34 -4 3 -11 3 -14 0z"/>
<path d="M980 1169 c0 -6 8 -34 18 -61 17 -48 16 -50 -2 -64 -18 -13 -17 -14
19 -14 35 0 37 1 20 13 -18 14 -18 52 1 115 6 19 3 22 -25 22 -17 0 -31 -5
-31 -11z m43 -19 c-6 -22 -23 -38 -23 -21 0 5 -3 16 -6 25 -4 11 0 16 14 16
15 0 19 -5 15 -20z"/>
<path d="M862 1121 c-8 -4 -12 -19 -10 -32 2 -18 9 -24 28 -24 21 0 25 5 25
30 0 31 -19 42 -43 26z"/>
<path d="M1100 1115 c-18 -22 -8 -50 19 -50 32 0 49 28 32 49 -17 20 -35 20
-51 1z"/>
<path d="M1192 1090 c0 -19 2 -27 5 -17 2 9 2 25 0 35 -3 9 -5 1 -5 -18z"/>
<path d="M1177 933 c-5 -7 -25 -14 -45 -14 -22 -1 -29 -3 -17 -6 11 -3 23 -10
27 -17 6 -8 8 -7 8 2 0 6 7 12 15 12 12 0 15 -13 15 -60 0 -46 -3 -60 -14 -60
-10 0 -16 13 -19 38 l-4 37 -1 -37 c-1 -25 -7 -38 -19 -41 -10 -3 -1 -5 19 -6
l37 -1 -3 -257 c-2 -142 -2 -228 1 -192 l4 65 28 -4 c35 -5 71 26 71 62 0 33
-22 93 -58 153 -31 52 -32 56 -34 195 -2 79 -7 137 -11 131z m58 -377 c29 -57
36 -81 30 -104 -8 -40 -29 -56 -60 -48 -25 6 -25 7 -25 116 0 63 4 110 9 110
6 0 26 -33 46 -74z"/>
<path d="M1241 480 c14 -31 19 -36 19 -24 0 6 -7 19 -16 30 -14 18 -14 18 -3
-6z"/>
<path d="M1220 442 c6 -13 14 -21 18 -18 3 4 -2 14 -12 24 -18 16 -18 16 -6
-6z"/>
<path d="M1033 903 c28 -4 29 -5 25 -64 -2 -35 1 -59 7 -59 6 0 9 21 7 50 -3
30 1 57 8 65 11 13 6 15 -31 14 -32 -2 -36 -3 -16 -6z"/>
<path d="M867 893 c-3 -5 -2 -34 0 -65 l5 -58 72 1 c39 1 64 3 55 6 -17 4 -36
94 -24 113 4 6 -16 10 -49 10 -30 0 -57 -3 -59 -7z m97 -40 c11 -71 10 -73
-39 -73 l-45 0 0 55 0 55 39 0 c37 0 39 -2 45 -37z"/>
<path d="M751 568 c-43 -74 -39 -85 4 -13 20 32 33 60 31 62 -3 3 -18 -19 -35
-49z"/>
<path d="M806 453 c-5 -43 -13 -73 -20 -73 -6 0 -5 -4 3 -9 16 -10 34 -195 25
-248 -9 -49 4 -101 27 -114 28 -14 85 -3 110 22 12 12 19 33 19 59 0 40 0 40
39 40 40 0 40 0 47 -46 12 -81 65 -108 120 -61 29 26 30 35 15 142 -5 33 -9
48 -10 34 0 -15 -9 -30 -18 -34 -10 -4 -81 -9 -158 -12 -191 -7 -179 -20 -185
199 -5 159 -6 167 -14 101z m374 -312 c0 -14 -27 -21 -76 -21 -48 0 -60 16
-16 23 52 8 92 7 92 -2z m-226 -22 c6 -5 -1 -9 -20 -10 -28 -1 -28 -1 -4 -8
49 -14 29 -73 -28 -84 -46 -9 -72 8 -72 48 0 29 4 35 23 36 l22 2 -22 4 c-13
2 -23 11 -23 20 0 13 9 14 58 8 31 -4 61 -11 66 -16z m231 -45 c0 -32 -5 -41
-27 -51 -38 -19 -74 -3 -83 37 -8 39 -5 42 48 51 59 9 62 7 62 -37z"/>
<path d="M852 63 c2 -9 9 -18 16 -19 7 -1 8 0 2 3 -18 8 -11 23 11 23 15 0 19
-5 15 -15 -8 -22 1 -18 14 5 10 18 8 20 -25 20 -29 0 -36 -4 -33 -17z"/>
<path d="M1097 93 c-3 -5 -1 -18 4 -30 8 -23 42 -32 53 -14 3 4 -6 6 -19 3
-20 -3 -25 0 -25 17 0 16 6 21 24 21 13 0 27 -6 29 -12 3 -8 6 -6 6 5 1 13 -7
17 -33 17 -19 0 -37 -3 -39 -7z"/>
<path d="M711 458 c-1 -54 48 -102 63 -62 10 26 6 30 -9 10 -13 -18 -15 -18
-21 -2 -4 10 -2 22 5 29 6 6 11 15 11 21 0 5 -6 1 -14 -10 -15 -20 -19 -17
-29 31 -3 11 -5 3 -6 -17z"/>
</g>
</svg>
