<?xml version="1.0" standalone="no"?>
<!DOCTYPE svg PUBLIC "-//W3C//DTD SVG 20010904//EN"
 "http://www.w3.org/TR/2001/REC-SVG-20010904/DTD/svg10.dtd">
<svg version="1.0" xmlns="http://www.w3.org/2000/svg"
 width="200.000000pt" height="200.000000pt" viewBox="0 0 200.000000 200.000000"
 preserveAspectRatio="xMidYMid meet">

<g transform="translate(0.000000,200.000000) scale(0.100000,-0.100000)"
fill="#000000" stroke="none">
<path d="M793 1860 c-82 -33 -75 -178 23 -503 43 -142 41 -165 -20 -231 -75
-79 -108 -173 -92 -261 10 -54 61 -104 144 -141 46 -22 72 -39 72 -50 0 -9
-16 -63 -36 -120 -25 -75 -37 -129 -41 -192 l-6 -87 53 0 c46 0 55 -4 81 -33
l29 -32 28 31 c21 24 38 32 75 36 l47 6 0 78 c0 64 -6 95 -35 176 -20 54 -35
111 -33 128 3 27 10 33 73 58 112 45 145 89 145 194 0 73 -32 145 -94 211 -25
27 -48 62 -52 78 -4 20 11 79 46 187 57 176 80 271 80 335 0 88 -51 153 -107
135 -67 -22 -103 -144 -128 -428 -9 -99 -18 -186 -20 -192 -2 -7 -13 -13 -24
-13 -24 0 -28 18 -36 180 -18 338 -75 488 -172 450z m84 -130 c24 -62 66 -361
61 -438 -3 -39 -6 -47 -25 -50 -25 -4 -25 -3 -84 223 -58 228 -57 332 5 323
15 -2 27 -19 43 -58z m347 38 c9 -12 16 -37 16 -55 0 -29 -67 -304 -102 -423
-14 -44 -39 -63 -59 -43 -19 19 36 417 67 492 23 56 52 66 78 29z m-269 -818
c0 -7 -6 -15 -12 -17 -8 -3 -13 4 -13 17 0 13 5 20 13 18 6 -3 12 -11 12 -18z
m115 -6 c0 -16 -16 -19 -25 -4 -8 13 4 32 16 25 5 -4 9 -13 9 -21z m-203 -40
c-3 -3 -12 -4 -19 -1 -8 3 -5 6 6 6 11 1 17 -2 13 -5z m280 0 c-3 -3 -12 -4
-19 -1 -8 3 -5 6 6 6 11 1 17 -2 13 -5z m-117 -9 c0 -2 -9 -9 -19 -14 -14 -8
-22 -7 -31 4 -11 13 -8 15 19 15 17 0 31 -2 31 -5z m-147 -22 c-13 -2 -33 -2
-45 0 -13 2 -3 4 22 4 25 0 35 -2 23 -4z m280 0 c-13 -2 -35 -2 -50 0 -16 2
-5 4 22 4 28 0 40 -2 28 -4z m-276 -29 c-3 -3 -12 -4 -19 -1 -8 3 -5 6 6 6 11
1 17 -2 13 -5z m131 -27 c3 -23 0 -27 -20 -24 -15 3 -24 12 -26 27 -3 18 0 21
13 17 10 -5 14 -3 9 4 -4 7 -1 10 7 7 8 -2 15 -17 17 -31z m119 27 c-3 -3 -12
-4 -19 -1 -8 3 -5 6 6 6 11 1 17 -2 13 -5z"/>
<path d="M828 589 c-44 -25 -43 -75 1 -99 17 -9 21 -4 35 42 19 67 9 84 -36
57z"/>
<path d="M1122 592 c-9 -7 -9 -18 4 -55 20 -58 28 -63 54 -37 25 25 26 54 0
80 -21 21 -37 25 -58 12z"/>
<path d="M843 260 c-30 -12 -64 -69 -61 -100 3 -25 4 -25 106 -28 l102 -3 0
36 c0 47 -14 71 -50 90 -32 17 -64 18 -97 5z"/>
<path d="M1058 255 c-33 -19 -48 -44 -48 -83 0 -36 15 -42 123 -42 84 0 95 7
83 55 -17 67 -98 104 -158 70z"/>
</g>
</svg>
