<?xml version="1.0" standalone="no"?>
<!DOCTYPE svg PUBLIC "-//W3C//DTD SVG 20010904//EN"
 "http://www.w3.org/TR/2001/REC-SVG-20010904/DTD/svg10.dtd">
<svg version="1.0" xmlns="http://www.w3.org/2000/svg"
 width="200.000000pt" height="200.000000pt" viewBox="0 0 200.000000 200.000000"
 preserveAspectRatio="xMidYMid meet">

<g transform="translate(0.000000,200.000000) scale(0.100000,-0.100000)"
fill="#000000" stroke="none">
<path d="M550 1861 c-102 -107 -98 -395 10 -721 21 -63 38 -115 37 -116 -1 0
-32 -21 -68 -46 -80 -56 -129 -116 -172 -205 -29 -62 -32 -77 -32 -164 0 -90
2 -99 38 -171 70 -142 225 -258 415 -310 110 -30 334 -30 444 0 256 70 438
250 455 449 15 177 -71 317 -275 449 -2 1 6 26 18 55 90 239 126 521 85 674
-27 101 -87 157 -151 141 -69 -18 -170 -174 -208 -323 -27 -103 -46 -252 -46
-355 l0 -98 -98 0 -99 0 -6 143 c-4 78 -14 176 -22 217 -36 178 -107 328 -184
388 -59 45 -94 43 -141 -7z m90 -1149 l28 -29 25 29 c21 23 33 28 69 28 50 0
82 -19 103 -60 47 -91 -17 -210 -149 -281 l-44 -23 -44 19 c-23 11 -67 42 -96
69 -87 82 -101 179 -35 248 38 40 103 40 143 0z m667 0 l25 -29 28 29 c40 40
105 40 143 0 66 -69 52 -166 -35 -248 -29 -27 -73 -58 -96 -69 l-44 -19 -44
23 c-132 71 -196 190 -149 281 21 41 53 60 103 60 36 0 48 -5 69 -28z"/>
</g>
</svg>
