<?xml version="1.0" standalone="no"?>
<!DOCTYPE svg PUBLIC "-//W3C//DTD SVG 20010904//EN"
 "http://www.w3.org/TR/2001/REC-SVG-20010904/DTD/svg10.dtd">
<svg version="1.0" xmlns="http://www.w3.org/2000/svg"
 width="200.000000pt" height="200.000000pt" viewBox="0 0 200.000000 200.000000"
 preserveAspectRatio="xMidYMid meet">

<g transform="translate(0.000000,200.000000) scale(0.100000,-0.100000)"
fill="#000000" stroke="none">
<path d="M550 1861 c-102 -107 -98 -395 10 -721 21 -63 38 -115 37 -116 -1 0
-32 -21 -68 -46 -80 -56 -129 -116 -172 -205 -29 -62 -32 -77 -32 -164 0 -90
2 -99 38 -171 70 -142 225 -258 415 -310 110 -30 334 -30 444 0 256 70 438
250 455 449 15 177 -71 317 -275 449 -2 1 6 26 18 55 90 239 126 521 85 674
-27 101 -87 157 -151 141 -69 -18 -170 -174 -208 -323 -27 -103 -46 -252 -46
-355 l0 -98 -98 0 -99 0 -6 143 c-4 78 -14 176 -22 217 -36 178 -107 328 -184
388 -59 45 -94 43 -141 -7z m311 -1172 c32 -113 -28 -268 -117 -305 -43 -18
-108 -18 -143 1 -28 14 -101 91 -101 105 0 4 18 19 39 33 l40 27 30 -30 c31
-32 75 -39 112 -20 31 17 51 67 48 122 -3 48 -1 52 31 75 40 27 52 26 61 -8z
m339 8 c32 -23 34 -27 31 -75 -3 -55 17 -105 48 -122 37 -19 81 -12 112 20
l30 30 39 -26 c35 -23 38 -29 29 -48 -17 -31 -60 -76 -91 -92 -35 -18 -111
-18 -147 0 -77 41 -127 145 -118 251 4 62 11 85 25 85 4 0 23 -11 42 -23z"/>
</g>
</svg>
