<?xml version="1.0" standalone="no"?>
<!DOCTYPE svg PUBLIC "-//W3C//DTD SVG 20010904//EN"
 "http://www.w3.org/TR/2001/REC-SVG-20010904/DTD/svg10.dtd">
<svg version="1.0" xmlns="http://www.w3.org/2000/svg"
 width="200.000000pt" height="200.000000pt" viewBox="0 0 200.000000 200.000000"
 preserveAspectRatio="xMidYMid meet">

<g transform="translate(0.000000,200.000000) scale(0.100000,-0.100000)"
fill="#000000" stroke="none">
<path d="M550 1861 c-102 -107 -98 -395 10 -721 21 -63 38 -115 37 -116 -1 0
-32 -21 -68 -46 -80 -56 -129 -116 -172 -205 -29 -62 -32 -77 -32 -164 0 -90
2 -99 38 -171 70 -142 225 -258 415 -310 110 -30 334 -30 444 0 256 70 438
250 455 449 15 177 -71 317 -275 449 -2 1 6 26 18 55 90 239 126 521 85 674
-27 101 -87 157 -151 141 -69 -18 -170 -174 -208 -323 -27 -103 -46 -252 -46
-355 l0 -98 -98 0 -99 0 -6 143 c-4 78 -14 176 -22 217 -36 178 -107 328 -184
388 -59 45 -94 43 -141 -7z m72 -1188 l68 -67 70 69 c55 55 72 67 82 57 10
-10 -2 -27 -57 -82 l-69 -70 68 -69 c61 -61 68 -72 56 -86 -12 -14 -21 -8 -84
54 l-72 71 -69 -70 c-54 -55 -72 -67 -82 -58 -12 9 -1 25 56 82 l71 72 -70 69
c-53 53 -67 72 -58 82 6 7 13 13 16 13 4 0 37 -30 74 -67z m620 0 l68 -67 68
67 c49 49 73 66 85 61 9 -3 17 -9 17 -12 0 -4 -30 -37 -67 -74 l-67 -68 69
-70 c62 -62 68 -72 54 -85 -13 -13 -22 -7 -84 55 l-69 70 -72 -71 c-63 -62
-72 -68 -84 -54 -12 14 -5 25 56 86 l68 69 -68 69 c-59 59 -76 91 -48 91 4 0
37 -30 74 -67z"/>
</g>
</svg>
