<?xml version="1.0" standalone="no"?>
<!DOCTYPE svg PUBLIC "-//W3C//DTD SVG 20010904//EN"
 "http://www.w3.org/TR/2001/REC-SVG-20010904/DTD/svg10.dtd">
<svg version="1.0" xmlns="http://www.w3.org/2000/svg"
 width="200.000000pt" height="200.000000pt" viewBox="0 0 200.000000 200.000000"
 preserveAspectRatio="xMidYMid meet">
<metadata>
Created by potrace 1.16, written by Peter Selinger 2001-2019
</metadata>
<g transform="translate(0.000000,200.000000) scale(0.100000,-0.100000)"
fill="#000000" stroke="none">
<path d="M512 1590 c-62 -38 -72 -68 -72 -222 l0 -136 -50 -17 c-60 -20 -154
-88 -193 -138 -16 -21 -40 -63 -55 -95 -24 -51 -27 -68 -27 -167 1 -91 5 -120
24 -168 32 -82 123 -177 209 -219 l67 -33 585 0 585 0 66 32 c81 40 169 130
207 210 24 53 27 69 27 173 0 105 -2 120 -28 174 -52 112 -143 197 -249 232
l-48 16 0 136 c0 154 -10 184 -72 222 -45 27 -131 27 -176 0 -62 -38 -72 -69
-72 -217 l0 -133 -240 0 -240 0 0 133 c0 148 -10 179 -72 217 -45 27 -131 27
-176 0z m154 -772 c12 -40 -16 -48 -174 -48 -80 0 -152 5 -163 10 -19 10 -26
40 -12 53 3 4 82 7 174 7 163 0 168 -1 175 -22z m1020 0 c12 -40 -16 -48 -174
-48 -80 0 -152 5 -163 10 -19 10 -26 40 -12 53 3 4 82 7 174 7 163 0 168 -1
175 -22z"/>
</g>
</svg>
