<?xml version="1.0" standalone="no"?>
<!DOCTYPE svg PUBLIC "-//W3C//DTD SVG 20010904//EN"
 "http://www.w3.org/TR/2001/REC-SVG-20010904/DTD/svg10.dtd">
<svg version="1.0" xmlns="http://www.w3.org/2000/svg"
 width="200.000000pt" height="200.000000pt" viewBox="0 0 200.000000 200.000000"
 preserveAspectRatio="xMidYMid meet">
<metadata>
Created by potrace 1.16, written by Peter Selinger 2001-2019
</metadata>
<g transform="translate(0.000000,200.000000) scale(0.100000,-0.100000)"
fill="#000000" stroke="none">
<path d="M525 1660 c-75 -38 -80 -52 -83 -252 l-3 -177 -50 -16 c-59 -20 -154
-88 -192 -138 -16 -21 -40 -63 -55 -95 -24 -51 -27 -68 -27 -167 1 -91 5 -120
24 -168 32 -82 123 -177 209 -219 l67 -33 585 0 585 0 66 32 c81 40 169 130
207 210 24 53 27 69 27 173 0 105 -2 120 -28 174 -52 112 -143 197 -249 232
l-47 15 -3 179 -3 179 -30 32 c-57 60 -128 74 -199 39 -76 -37 -81 -52 -84
-247 l-3 -173 -239 0 -239 0 -3 174 -3 175 -30 32 c-57 60 -129 74 -200 39z
m-96 -631 c76 -13 101 -24 101 -44 0 -19 39 -45 66 -45 13 0 35 10 51 23 39
33 79 23 76 -18 -3 -41 -51 -106 -98 -132 -117 -66 -280 15 -293 146 -5 55 1
81 19 81 7 0 42 -5 78 -11z m1239 -54 c-4 -71 -19 -99 -82 -149 -32 -26 -47
-31 -104 -34 -55 -2 -74 1 -107 20 -46 27 -93 91 -97 132 -4 42 35 52 75 19
16 -13 40 -23 53 -23 24 0 67 33 75 59 5 13 106 37 163 40 l28 1 -4 -65z
m-530 -130 c2 -89 -1 -117 -15 -145 -39 -75 -128 -102 -194 -57 -55 37 -69 76
-69 198 0 58 3 109 7 113 4 3 66 5 137 4 l131 -3 3 -110z"/>
</g>
</svg>
