<?xml version="1.0" standalone="no"?>
<!DOCTYPE svg PUBLIC "-//W3C//DTD SVG 20010904//EN"
 "http://www.w3.org/TR/2001/REC-SVG-20010904/DTD/svg10.dtd">
<svg version="1.0" xmlns="http://www.w3.org/2000/svg"
 width="200.000000pt" height="200.000000pt" viewBox="0 0 200.000000 200.000000"
 preserveAspectRatio="xMidYMid meet">
<metadata>
Created by potrace 1.16, written by Peter Selinger 2001-2019
</metadata>
<g transform="translate(0.000000,200.000000) scale(0.100000,-0.100000)"
fill="#000000" stroke="none">
<path d="M512 1590 c-62 -38 -72 -68 -72 -222 l0 -136 -50 -17 c-60 -20 -154
-88 -193 -138 -16 -21 -40 -63 -55 -95 -24 -51 -27 -68 -27 -167 1 -91 5 -120
24 -168 32 -82 123 -177 209 -219 l67 -33 585 0 585 0 66 32 c81 40 169 130
207 210 24 53 27 69 27 173 0 105 -2 120 -28 174 -52 112 -143 197 -249 232
l-48 16 0 136 c0 154 -10 184 -72 222 -45 27 -131 27 -176 0 -62 -38 -72 -69
-72 -217 l0 -133 -240 0 -240 0 0 133 c0 148 -10 179 -72 217 -45 27 -131 27
-176 0z m105 -569 c12 -6 35 -28 50 -48 24 -31 28 -47 32 -116 3 -81 -5 -102
-36 -90 -9 4 -13 26 -13 79 0 68 -2 76 -31 109 -28 32 -36 35 -83 35 -39 0
-58 -6 -81 -24 -28 -22 -30 -29 -33 -105 -4 -79 -18 -111 -42 -96 -15 9 -12
151 4 183 18 35 74 81 106 88 14 3 30 7 35 8 15 4 67 -9 92 -23z m956 -19 c46
-43 57 -74 57 -156 0 -76 -10 -97 -35 -76 -11 9 -15 34 -15 85 0 67 -3 76 -29
104 -25 26 -36 31 -77 31 -53 0 -109 -30 -118 -65 -3 -11 -6 -50 -6 -86 0 -68
-14 -91 -39 -66 -17 17 -14 133 5 170 20 41 70 86 103 93 14 3 31 7 36 8 25 6
93 -18 118 -42z m-445 6 c20 -20 16 -205 -6 -248 -50 -101 -183 -105 -242 -8
-17 27 -20 51 -20 139 0 68 4 109 12 117 17 17 239 17 256 0z"/>
</g>
</svg>
