<?xml version="1.0" standalone="no"?>
<!DOCTYPE svg PUBLIC "-//W3C//DTD SVG 20010904//EN"
 "http://www.w3.org/TR/2001/REC-SVG-20010904/DTD/svg10.dtd">
<svg version="1.0" xmlns="http://www.w3.org/2000/svg"
 width="200.000000pt" height="200.000000pt" viewBox="0 0 200.000000 200.000000"
 preserveAspectRatio="xMidYMid meet">
<metadata>
Created by potrace 1.16, written by Peter Selinger 2001-2019
</metadata>
<g transform="translate(0.000000,200.000000) scale(0.100000,-0.100000)"
fill="#000000" stroke="none">
<path d="M512 1590 c-62 -38 -72 -68 -72 -222 l0 -136 -50 -17 c-60 -20 -154
-88 -193 -138 -16 -21 -40 -63 -55 -95 -24 -51 -27 -68 -27 -167 1 -91 5 -120
24 -168 32 -82 123 -177 209 -219 l67 -33 585 0 585 0 66 32 c81 40 169 130
207 210 24 53 27 69 27 173 0 105 -2 120 -28 174 -52 112 -143 197 -249 232
l-48 16 0 136 c0 154 -10 184 -72 222 -45 27 -131 27 -176 0 -62 -38 -72 -69
-72 -217 l0 -133 -240 0 -240 0 0 133 c0 148 -10 179 -72 217 -45 27 -131 27
-176 0z m161 -512 c65 -28 133 -105 153 -174 l15 -54 159 0 159 0 10 38 c14
52 62 124 103 155 85 65 200 79 296 37 221 -96 227 -416 10 -524 -58 -29 -157
-35 -219 -14 -87 29 -166 113 -190 200 l-10 38 -159 0 -159 0 -10 -38 c-23
-84 -93 -163 -174 -197 -43 -18 -144 -20 -197 -4 -59 18 -130 78 -164 139 -28
49 -31 64 -31 135 0 63 5 89 22 121 81 152 232 208 386 142z"/>
<path d="M495 1051 c-108 -28 -185 -126 -185 -236 0 -135 103 -235 241 -235
79 0 131 23 181 78 102 113 66 302 -72 372 -43 22 -122 32 -165 21z"/>
<path d="M1395 1051 c-108 -28 -185 -126 -185 -236 0 -135 103 -235 241 -235
79 0 131 23 181 78 102 113 66 302 -72 372 -43 22 -122 32 -165 21z"/>
</g>
</svg>
