<?xml version="1.0" standalone="no"?>
<!DOCTYPE svg PUBLIC "-//W3C//DTD SVG 20010904//EN"
 "http://www.w3.org/TR/2001/REC-SVG-20010904/DTD/svg10.dtd">
<svg version="1.0" xmlns="http://www.w3.org/2000/svg"
 width="1078.000000pt" height="552.000000pt" viewBox="0 0 1078.000000 552.000000"
 preserveAspectRatio="xMidYMid meet">

<g transform="translate(0.000000,552.000000) scale(0.100000,-0.100000)"
fill="#000000" stroke="none">
<path d="M7635 4574 c-199 -28 -336 -95 -466 -231 -158 -165 -252 -376 -289
-651 -29 -209 15 -465 107 -621 82 -139 248 -246 424 -271 181 -26 375 41 466
159 34 45 108 190 154 305 l24 58 -24 19 c-58 47 -211 65 -424 50 -232 -16
-307 -38 -307 -88 0 -35 138 -62 318 -63 51 0 72 -4 72 -12 -1 -46 -107 -210
-165 -253 -32 -25 -35 -25 -63 -11 -47 24 -119 112 -142 174 -62 163 -84 368
-61 545 25 187 94 388 176 511 66 100 213 234 228 208 3 -4 8 -77 12 -162 7
-173 15 -212 48 -228 39 -20 106 -30 145 -21 65 14 69 25 77 246 9 252 7 257
-102 309 -51 24 -144 37 -208 28z m-202 -90 c3 -4 -24 -29 -61 -56 -93 -69
-145 -122 -201 -203 -175 -254 -251 -577 -207 -875 13 -86 14 -125 2 -89 -43
124 -57 342 -33 484 52 297 210 568 407 701 64 43 81 50 93 38z m465 -412
c-13 -27 -43 -41 -59 -25 -4 4 5 34 21 66 16 31 32 83 37 114 l8 58 3 -93 c2
-61 -2 -102 -10 -120z m82 -818 c0 -30 -35 -124 -56 -150 -15 -19 -16 -19 -9
1 4 11 11 54 17 95 12 100 14 105 33 90 8 -7 15 -23 15 -36z"/>
<path d="M3385 4484 c-134 -26 -255 -105 -255 -165 0 -34 31 -53 103 -64 26
-4 49 -10 51 -14 3 -4 -2 -149 -9 -322 -26 -572 -12 -1143 29 -1188 24 -27
111 -45 171 -37 83 13 81 4 88 330 3 158 8 290 10 293 3 2 72 18 153 33 185
37 259 61 333 111 153 102 234 253 234 439 1 306 -209 528 -557 589 -81 15
-266 12 -351 -5z m338 -155 c131 -67 209 -193 224 -364 14 -170 -70 -346 -196
-410 -49 -24 -160 -60 -166 -53 -3 2 -2 197 2 432 l6 428 44 -6 c24 -3 62 -15
86 -27z m360 -58 c49 -52 79 -105 108 -189 23 -68 42 -170 35 -189 -11 -28
-34 5 -41 60 -18 142 -60 240 -134 312 -23 21 -41 43 -41 47 0 21 32 3 73 -41z
m-703 -63 c0 -18 -7 -89 -14 -158 -8 -69 -17 -262 -20 -430 -7 -359 -14 -480
-28 -480 -17 0 -3 818 16 970 9 69 16 126 16 128 0 1 7 2 15 2 10 0 15 -10 15
-32z m840 -379 c0 -11 -4 -17 -10 -14 -5 3 -10 13 -10 21 0 8 5 14 10 14 6 0
10 -9 10 -21z"/>
<path d="M1101 4251 c-29 -29 -69 -223 -96 -459 -39 -355 -45 -994 -12 -1143
40 -173 127 -264 336 -346 22 -8 7 -19 -155 -112 -98 -56 -185 -110 -191 -119
-18 -23 -16 -57 7 -101 22 -43 64 -81 90 -81 9 0 58 20 110 45 51 25 94 44 95
43 1 -2 -6 -50 -16 -107 -36 -216 -34 -389 8 -556 25 -103 28 -105 141 -105
53 0 102 4 108 8 22 14 32 49 50 165 l17 117 152 0 152 0 20 -126 c27 -166 27
-165 157 -162 l101 3 19 38 c10 21 27 89 38 150 23 131 20 310 -7 470 -10 54
-15 100 -13 103 3 2 44 -14 93 -36 48 -22 98 -40 111 -40 44 0 117 127 96 167
-6 10 -89 63 -186 118 -96 55 -175 102 -176 106 0 3 35 19 78 37 141 58 229
162 269 318 16 61 18 119 18 479 -1 419 -8 543 -46 810 -27 190 -54 296 -80
318 -18 14 -42 17 -153 17 -129 0 -133 -1 -157 -26 l-24 -26 -3 -389 -3 -390
-62 8 c-79 10 -414 10 -489 0 l-58 -7 0 389 0 388 -26 27 c-26 25 -29 26 -160
26 -118 0 -136 -2 -153 -19z m289 -31 c6 -9 10 -182 10 -419 l0 -404 73 9 c93
12 462 12 550 0 l67 -8 0 405 c0 364 2 406 17 418 18 16 172 25 228 15 39 -8
42 -14 74 -176 50 -243 72 -541 72 -971 0 -349 -9 -443 -51 -531 -48 -102
-139 -173 -275 -214 -33 -10 -63 -21 -68 -24 -4 -4 8 -64 28 -135 72 -263 89
-371 89 -575 1 -144 -3 -202 -17 -260 -9 -41 -21 -81 -25 -87 -5 -8 -41 -16
-83 -19 -60 -5 -78 -4 -90 9 -9 9 -23 59 -33 124 -9 59 -19 119 -22 133 l-4
25 -184 0 -183 0 -21 -135 c-16 -98 -26 -138 -39 -147 -17 -13 -86 -15 -138
-4 -37 8 -49 40 -72 186 -28 186 -5 414 73 713 20 75 37 145 38 156 1 15 -12
22 -59 35 -195 55 -295 173 -325 386 -13 92 -13 596 0 805 23 361 78 692 118
704 9 2 68 4 130 3 88 -2 115 -5 122 -17z m983 -2100 c53 -30 99 -63 102 -72
8 -21 -29 -94 -54 -107 -15 -8 -39 -1 -112 35 -52 25 -95 47 -96 48 -4 4 -53
195 -53 207 0 5 26 -5 58 -23 32 -18 102 -58 155 -88z m-1047 88 c-3 -13 -16
-59 -27 -104 l-21 -80 -94 -47 c-52 -26 -101 -47 -109 -47 -20 0 -67 76 -63
103 2 16 41 44 153 109 83 48 154 87 159 88 4 0 6 -10 2 -22z"/>
<path d="M1167 4048 c-28 -28 -32 -66 -43 -379 l-7 -185 29 -23 c22 -18 38
-21 82 -19 88 5 88 6 102 312 l12 259 -24 24 c-16 16 -40 25 -75 30 -45 5 -54
3 -76 -19z"/>
<path d="M2213 4060 c-52 -21 -53 -34 -41 -315 11 -249 13 -261 34 -282 18
-18 34 -23 73 -23 108 0 109 2 94 321 -6 140 -12 257 -12 262 -1 4 -16 16 -33
27 -35 21 -78 25 -115 10z"/>
<path d="M1301 3164 c-26 -34 -27 -68 -1 -94 47 -47 123 -15 123 51 0 65 -82
93 -122 43z m85 -36 c7 -22 -19 -52 -40 -45 -17 6 -29 34 -23 51 10 24 54 21
63 -6z"/>
<path d="M2080 3168 c-26 -28 -26 -72 0 -98 46 -46 120 -15 120 51 0 60 -79
91 -120 47z m83 -38 c6 -22 -16 -50 -39 -50 -19 0 -35 41 -22 58 17 20 55 15
61 -8z"/>
<path d="M1785 3023 c-23 -13 -37 -14 -67 -6 -41 11 -51 2 -16 -14 22 -10 22
-10 -12 -28 -19 -10 -30 -20 -23 -22 6 -2 29 4 50 15 33 17 42 18 73 6 42 -15
63 -17 55 -5 -3 5 -19 13 -36 16 l-32 7 29 24 c33 27 23 31 -21 7z"/>
<path d="M1498 2053 c-4 -220 5 -246 107 -298 53 -26 69 -30 150 -29 106 0
168 24 212 81 26 34 28 43 36 200 4 91 6 172 3 179 -4 11 -52 14 -255 14
l-250 0 -3 -147z"/>
<path d="M4483 4235 c-12 -8 -24 -27 -27 -43 -3 -15 -15 -175 -26 -355 -20
-329 -28 -989 -12 -1013 14 -21 51 -34 101 -34 70 0 81 14 81 103 0 40 11 299
25 577 25 516 30 727 17 746 -23 35 -120 46 -159 19z m7 -157 c0 -18 -5 -73
-10 -123 -5 -49 -15 -208 -21 -353 -15 -364 -29 -420 -24 -97 4 232 21 559 31
593 7 25 24 11 24 -20z"/>
<path d="M9543 4235 c-12 -8 -24 -27 -27 -43 -3 -15 -15 -175 -26 -355 -20
-329 -28 -989 -12 -1013 14 -21 51 -34 101 -34 70 0 81 14 81 103 0 40 11 297
25 572 25 511 30 731 17 751 -23 35 -120 46 -159 19z m7 -157 c0 -18 -5 -73
-10 -123 -5 -49 -14 -207 -20 -350 -15 -366 -30 -426 -24 -100 3 233 20 560
30 593 7 25 24 11 24 -20z"/>
<path d="M8320 4050 c-100 -24 -154 -187 -84 -257 77 -77 171 -2 182 146 4 60
2 68 -21 94 -15 15 -30 27 -34 26 -4 -1 -24 -5 -43 -9z m-51 -127 c0 -5 -4
-17 -9 -28 -8 -18 -9 -17 -9 8 -1 15 4 27 9 27 6 0 10 -3 9 -7z m26 -93 c3 -5
2 -10 -4 -10 -5 0 -13 5 -16 10 -3 6 -2 10 4 10 5 0 13 -4 16 -10z"/>
<path d="M5297 3806 c-93 -34 -257 -160 -257 -199 0 -21 38 -37 90 -37 30 0
53 10 102 45 35 24 83 57 107 71 42 26 44 27 57 9 24 -32 35 -119 32 -250 l-3
-129 -145 -1 c-172 -1 -254 -19 -332 -74 -123 -86 -145 -257 -46 -363 50 -52
130 -79 238 -79 76 0 141 23 209 75 44 33 70 34 69 4 -5 -82 1 -99 40 -115 52
-22 121 -8 139 27 16 34 38 550 30 712 -11 206 -32 264 -111 302 -42 20 -165
21 -219 2z m23 -26 c0 -6 -34 -26 -75 -45 -43 -19 -96 -54 -126 -82 -29 -27
-47 -38 -41 -26 15 28 82 82 157 127 60 37 85 44 85 26z m-22 -475 c-2 -3 -40
-10 -84 -15 -162 -21 -253 -65 -295 -145 -27 -51 -55 -62 -44 -17 14 57 85
111 190 145 63 21 247 46 233 32z m91 -141 c30 -6 31 -8 31 -65 l0 -58 -62
-19 c-35 -11 -93 -31 -130 -45 l-67 -26 -7 34 c-4 22 0 47 14 76 39 89 114
124 221 103z m196 -341 c-3 -18 -11 -33 -17 -33 -7 0 -9 20 -4 63 4 34 10 109
14 167 l7 105 3 -135 c2 -74 0 -150 -3 -167z"/>
<path d="M5864 3790 c-115 -46 -109 -280 10 -424 97 -118 279 -152 433 -81 31
14 60 25 66 25 20 0 -28 -417 -59 -512 -24 -75 -83 -132 -188 -183 -50 -24
-120 -53 -156 -65 -36 -12 -73 -30 -83 -42 -16 -19 -16 -22 -1 -39 24 -26 75
-40 146 -41 74 0 114 10 263 64 219 81 297 159 325 328 34 210 64 803 43 879
-14 54 -51 75 -141 80 -107 5 -129 -9 -188 -118 -68 -125 -160 -258 -184 -266
-26 -8 -40 7 -83 95 -30 61 -32 72 -32 175 0 107 -1 110 -25 122 -28 14 -114
16 -146 3z m6 -39 c0 -5 -7 -25 -15 -44 -8 -20 -19 -67 -24 -104 l-10 -68 3
90 c2 86 15 135 36 135 6 0 10 -4 10 -9z m767 -438 c-8 -134 -42 -403 -64
-503 -25 -121 -51 -179 -87 -201 -56 -34 -63 -16 -16 37 44 50 69 105 85 187
13 61 75 538 75 575 0 6 3 12 7 12 3 0 3 -48 0 -107z"/>
<path d="M8950 3741 c-85 -26 -131 -77 -176 -194 -15 -40 -31 -76 -35 -81 -10
-11 -16 33 -24 154 -3 52 -10 99 -14 103 -12 12 -77 20 -104 13 -14 -3 -28
-13 -31 -22 -8 -20 20 -605 35 -748 10 -92 16 -114 35 -133 27 -27 97 -32 130
-9 27 19 36 51 94 343 48 246 84 373 107 380 6 3 20 -11 29 -29 29 -56 77
-109 118 -130 49 -25 156 -22 183 5 15 15 14 19 -23 54 -27 27 -51 67 -78 131
-37 87 -61 128 -49 82 7 -26 -14 -26 -22 -1 -8 25 -64 51 -109 51 -54 0 -43
20 12 21 42 1 44 2 17 9 -39 10 -64 10 -95 1z m-129 -163 c-10 -18 -25 -51
-32 -73 -9 -27 -14 -34 -17 -22 -4 21 45 127 58 127 5 0 1 -15 -9 -32z m-217
-60 c9 -46 23 -483 16 -491 -10 -11 -18 69 -25 243 -3 74 -8 165 -11 203 -4
45 -2 67 5 67 6 0 13 -10 15 -22z m28 -580 c-13 -13 -27 46 -16 64 5 8 11 1
17 -21 5 -21 5 -37 -1 -43z"/>
<path d="M8234 3664 c-12 -3 -30 -14 -40 -26 -18 -19 -19 -44 -19 -392 0 -281
3 -376 13 -393 24 -43 143 -53 174 -15 10 11 12 61 10 207 -2 105 2 278 8 384
12 186 11 194 -7 212 -19 20 -97 32 -139 23z m-24 -268 c-5 -120 -12 -221 -15
-225 -10 -9 -1 422 9 437 4 7 10 12 12 10 2 -3 0 -102 -6 -222z m21 -527 c8
-11 30 -24 49 -29 l35 -8 -39 -1 c-41 -1 -76 20 -76 46 0 20 16 16 31 -8z"/>
<path d="M4503 2164 c-9 -23 -9 -24 -5 -701 l2 -551 63 -7 c34 -3 76 -2 92 3
l30 8 3 217 c3 249 -11 221 115 231 127 10 221 75 274 190 26 57 28 69 28 196
0 201 -37 292 -149 367 -71 48 -106 56 -283 60 -151 4 -163 3 -170 -13z m294
-193 c61 -28 95 -92 101 -190 2 -42 -1 -95 -7 -119 -22 -80 -101 -140 -171
-130 l-25 3 -3 215 c-1 118 0 220 2 227 8 19 54 16 103 -6z"/>
<path d="M5556 2168 c-2 -7 -36 -161 -75 -343 -39 -181 -95 -439 -125 -572
-30 -133 -58 -263 -61 -288 l-7 -45 101 0 c101 0 102 0 112 27 6 15 13 53 17
83 l7 55 50 7 c28 5 87 5 133 2 l82 -6 26 -84 25 -84 95 0 c77 0 96 3 101 16
3 8 -8 72 -25 142 -17 70 -77 346 -133 615 l-103 487 -108 0 c-78 0 -110 -3
-112 -12z m123 -555 c28 -110 62 -286 57 -299 -7 -18 -129 -20 -143 -1 -11 13
56 337 69 337 4 0 12 -17 17 -37z"/>
<path d="M6230 2165 c-12 -14 -14 -123 -15 -635 l-2 -619 21 -5 c28 -8 116 -7
155 0 l31 6 2 236 c2 158 7 237 14 239 10 3 185 -348 215 -430 8 -22 20 -42
29 -46 8 -4 62 -7 120 -7 93 1 105 3 108 19 2 10 -53 130 -122 267 -69 137
-126 254 -126 261 0 6 33 47 74 89 99 104 119 156 114 295 -3 85 -8 108 -33
158 -33 67 -97 130 -163 160 -42 20 -68 22 -228 25 -159 3 -182 2 -194 -13z
m302 -201 c72 -17 119 -128 98 -229 -15 -74 -55 -120 -123 -140 -61 -18 -52
-18 -71 1 -13 13 -16 43 -16 169 0 161 7 200 37 208 18 4 23 4 75 -9z"/>
<path d="M7090 2154 c-14 -36 -12 -137 3 -157 9 -13 32 -17 107 -19 l95 -3 3
-532 2 -533 98 0 99 0 6 347 c4 190 7 428 7 529 0 157 2 183 16 188 9 3 56 6
105 6 104 0 102 -2 97 120 l-3 75 -313 3 -312 2 -10 -26z"/>
<path d="M7906 2162 c-4 -12 28 -92 85 -213 50 -107 119 -260 155 -340 l64
-146 0 -271 c0 -258 1 -272 19 -282 29 -15 178 -13 188 3 4 6 10 138 13 292
l5 280 79 170 c111 241 206 469 206 493 0 27 -18 32 -106 32 -59 0 -77 -4 -90
-18 -8 -10 -56 -111 -107 -225 -50 -114 -95 -207 -99 -207 -13 0 -69 126 -130
290 -40 109 -56 141 -75 149 -13 6 -64 11 -113 11 -77 0 -89 -2 -94 -18z"/>
<path d="M4195 1113 c-80 -19 -106 -144 -40 -187 28 -18 87 -21 116 -6 44 24
63 106 33 149 -14 19 -75 54 -86 50 -2 -1 -12 -3 -23 -6z"/>
</g>
</svg>
