<?xml version="1.0" standalone="no"?>
<!DOCTYPE svg PUBLIC "-//W3C//DTD SVG 20010904//EN"
 "http://www.w3.org/TR/2001/REC-SVG-20010904/DTD/svg10.dtd">
<svg version="1.0" xmlns="http://www.w3.org/2000/svg"
 width="812.000000pt" height="790.000000pt" viewBox="0 0 812.000000 790.000000"
 preserveAspectRatio="xMidYMid meet">

<g transform="translate(0.000000,790.000000) scale(0.100000,-0.100000)"
fill="#000000" stroke="none">
<path d="M0 3950 l0 -3950 4060 0 4060 0 0 3950 0 3950 -4060 0 -4060 0 0
-3950z m3717 3270 c17 -6 35 -21 42 -33 8 -15 12 -140 14 -407 2 -314 4 -384
15 -382 8 1 74 7 148 14 130 10 391 0 437 -18 16 -6 17 19 17 384 l0 391 23
25 c12 14 34 28 49 32 22 5 26 3 24 -13 -2 -10 -11 -20 -22 -21 -43 -8 -44
-16 -44 -437 l0 -400 -102 12 c-135 15 -336 15 -470 -1 l-108 -12 0 407 c0
428 1 422 -45 431 -11 2 -21 11 -23 21 -4 20 4 21 45 7z m-97 -503 c0 -222 -3
-306 -12 -315 -13 -13 -49 -15 -85 -6 l-23 6 0 303 c0 233 3 304 13 308 6 3
33 6 60 6 l47 1 0 -303z m1034 297 c14 -5 16 -42 16 -310 l0 -303 -36 -7 c-20
-4 -46 -2 -60 5 l-24 11 0 305 0 305 44 0 c24 0 51 -3 60 -6z m-943 -874 c12
-7 19 -21 19 -38 -1 -23 -2 -25 -11 -9 -12 20 -40 22 -57 5 -9 -9 -12 -6 -12
14 0 35 25 47 61 28z m773 4 c9 -3 16 -14 16 -23 0 -12 -10 -16 -35 -17 -26 0
-35 4 -35 16 0 29 20 37 54 24z m-767 -132 c-21 -20 -67 -8 -67 18 0 16 5 19
30 14 23 -5 31 -2 37 12 7 17 8 17 11 -5 2 -13 -3 -30 -11 -39z m783 16 c0
-23 -16 -31 -46 -24 -14 4 -24 14 -24 24 0 13 8 17 35 17 26 0 35 -4 35 -17z
m-368 -80 c19 -19 18 -19 -14 -13 -18 4 -46 1 -63 -5 -28 -11 -28 -10 -12 8 9
10 15 21 12 24 -3 2 9 5 27 5 17 0 40 -9 50 -19z m-418 -667 c3 -5 -1 -12 -10
-15 -24 -9 -31 -7 -31 9 0 16 32 21 41 6z m773 -6 c0 -16 -7 -18 -31 -9 -20 8
-11 24 13 24 10 0 18 -7 18 -15z m-753 -42 c-8 -27 -22 -77 -31 -113 -15 -60
-39 -113 -27 -59 9 39 56 203 61 212 12 20 11 2 -3 -40z m966 -113 c28 -16 46
-35 48 -48 3 -19 -11 -14 -112 45 -84 48 -116 72 -116 86 0 19 23 9 180 -83z
m-1070 73 c0 -10 -15 -27 -33 -37 -180 -107 -205 -117 -190 -80 6 15 193 129
221 134 1 0 2 -8 2 -17z m590 -267 l0 -224 -31 -11 c-40 -14 -152 -14 -201 0
l-38 10 0 224 0 225 135 0 135 0 0 -224z m314 83 c4 -20 24 -34 110 -75 98
-46 131 -74 87 -74 -11 0 -62 21 -115 46 l-96 47 1 51 c1 51 3 52 13 5z m-904
-27 l0 -38 -99 -48 c-67 -34 -105 -47 -117 -42 -18 7 -18 8 1 23 11 8 62 35
113 59 71 34 92 49 92 64 0 11 2 20 5 20 3 0 5 -17 5 -38z m654 -605 c27 -185
18 -171 114 -177 45 -3 83 -9 85 -15 3 -13 -141 -25 -171 -14 -31 12 -41 38
-61 164 l-17 110 -151 3 c-174 3 -155 15 -173 -113 -23 -164 -36 -178 -155
-167 -48 4 -80 12 -83 20 -3 9 18 12 82 12 71 0 87 3 95 18 5 9 16 67 25 127
10 61 19 118 22 128 5 15 23 17 188 17 l183 0 17 -113z m1856 -725 c74 -75 26
-192 -79 -192 -67 0 -111 47 -111 117 1 62 47 103 118 103 35 0 49 -6 72 -28z
m-3920 -657 l0 -666 -87 3 -88 3 -3 650 c-1 358 0 656 3 663 3 8 31 12 90 12
l85 0 0 -665z m5158 -3 l2 -663 -87 3 -88 3 -3 650 c-1 358 0 656 3 663 3 9
27 12 87 10 l83 -3 3 -663z m-1943 563 c84 -28 164 -75 210 -124 l29 -32 -55
-55 -55 -55 -40 32 c-92 73 -199 109 -327 109 -289 0 -487 -195 -487 -480 0
-141 46 -247 146 -339 91 -84 173 -117 309 -128 93 -7 219 16 282 51 l38 22 3
202 2 202 85 0 85 0 0 -244 0 -243 -37 -26 c-53 -37 -157 -83 -228 -102 -91
-25 -274 -30 -365 -11 -230 48 -418 223 -480 446 -28 103 -28 257 0 360 54
193 204 352 392 414 150 50 346 51 493 1z m-4027 15 c178 -29 297 -116 354
-258 19 -48 23 -76 23 -172 0 -105 -2 -120 -28 -175 -49 -105 -144 -184 -272
-225 -62 -21 -96 -24 -297 -28 l-228 -4 0 -189 0 -190 -87 3 -88 3 -3 623 -2
622 282 0 c156 0 311 -5 346 -10z m1560 -290 c173 -22 267 -99 308 -255 10
-37 14 -135 14 -372 l0 -323 -80 0 -80 0 0 61 0 62 -43 -40 c-132 -122 -406
-121 -535 1 -58 54 -77 100 -77 191 0 100 26 154 99 202 82 56 129 65 350 70
l199 5 -6 54 c-3 30 -16 72 -29 95 -64 115 -264 138 -438 51 -41 -20 -77 -38
-80 -40 -3 -1 -20 25 -39 58 -27 49 -30 64 -21 76 33 39 202 97 315 107 22 2
45 4 50 5 6 1 47 -3 93 -8z m4012 -74 l0 -83 -67 -5 c-110 -8 -194 -64 -237
-158 -20 -42 -21 -66 -24 -338 l-3 -293 -87 3 -87 3 -3 473 -2 472 85 0 85 0
0 -71 0 -71 53 48 c37 34 73 56 118 71 57 20 82 25 152 31 15 2 17 -8 17 -82z
m-3197 -303 c89 -204 165 -369 168 -365 3 4 77 172 164 375 l158 367 84 0 c45
0 83 -4 83 -8 0 -19 -483 -1101 -512 -1144 -62 -98 -160 -148 -289 -148 -76 0
-163 27 -207 65 l-26 22 24 46 c43 81 39 79 106 46 100 -50 195 -38 242 28 29
42 72 130 72 149 0 13 -385 898 -407 937 -3 4 37 6 87 5 l91 -3 162 -372z
m2367 -98 l0 -475 -85 0 -85 0 0 475 0 475 85 0 85 0 0 -475z m-2561 -1090
c11 -11 73 -168 138 -350 l118 -329 38 -9 c43 -10 52 -24 43 -62 l-7 -26 -152
3 -152 3 -3 30 c-5 39 19 55 81 55 35 0 47 4 44 13 -3 6 -16 42 -28 80 l-23
67 -166 0 -166 0 -23 -72 c-13 -40 -26 -79 -29 -87 -4 -11 4 -12 41 -7 39 6
49 4 66 -13 16 -16 18 -26 12 -43 -8 -22 -13 -23 -149 -26 l-141 -3 -7 26
c-10 39 1 55 39 55 l34 0 105 293 c58 160 109 302 112 315 7 21 6 22 -69 22
-69 0 -76 2 -84 23 -12 32 4 55 42 60 17 3 85 4 149 3 103 -1 120 -3 137 -21z
m893 6 c54 -17 120 -71 142 -116 13 -29 17 -55 14 -101 -5 -82 -39 -134 -111
-170 -28 -15 -53 -27 -55 -29 -1 -1 15 -20 37 -42 21 -23 56 -79 78 -125 46
-94 53 -103 106 -112 42 -8 52 -23 43 -61 -6 -23 -11 -25 -66 -25 -54 0 -64 3
-95 33 -20 19 -57 77 -89 143 -71 146 -92 164 -192 164 l-74 0 0 -125 0 -125
38 0 c75 0 102 -22 87 -70 -6 -19 -15 -20 -170 -20 -152 0 -165 1 -175 19 -10
21 -4 51 14 63 6 4 32 8 59 8 l47 0 0 310 0 310 -55 0 c-43 0 -56 4 -65 19
-10 20 -4 50 14 64 16 12 425 1 468 -12z m803 -1 c-3 -5 0 -10 7 -10 8 0 9 -3
3 -8 -15 -11 -17 -32 -2 -32 22 0 -17 -20 -40 -20 l-23 0 0 -314 0 -315 28 -3
c15 -2 25 -7 24 -12 -2 -5 2 -13 10 -17 10 -7 10 -9 0 -9 -14 0 -12 -21 3 -32
6 -4 -70 -8 -167 -8 -162 0 -178 2 -187 18 -6 10 -7 28 -4 40 5 20 13 22 102
24 l96 3 3 313 2 312 -95 0 -95 0 0 -109 c0 -60 -3 -116 -6 -125 -9 -24 -71
-21 -84 3 -11 21 -14 268 -4 295 5 14 34 16 221 16 140 0 212 -3 208 -10z
m-2377 -24 c39 -21 78 -65 98 -111 25 -60 22 -161 -6 -220 -22 -45 -88 -105
-117 -105 -15 0 -14 21 2 32 6 5 5 8 -2 8 -7 0 -13 7 -13 15 0 8 6 15 13 15 9
0 9 2 0 8 -9 6 -6 18 14 47 36 53 38 133 5 186 -12 20 -19 39 -15 42 3 4 1 7
-5 7 -7 0 -12 7 -12 15 0 8 6 15 13 15 7 0 8 3 2 8 -15 11 -17 32 -2 32 8 0 7
4 -3 10 -23 15 -2 12 28 -4z"/>
<path d="M960 3144 l0 -276 223 4 c220 3 223 3 279 31 99 48 148 132 148 251
-1 130 -72 216 -207 251 -41 11 -112 15 -250 15 l-193 0 0 -276z"/>
<path d="M2737 2736 c-51 -19 -75 -42 -88 -87 -33 -108 52 -189 198 -189 87 0
132 13 185 53 62 48 88 98 88 175 l0 62 -172 0 c-120 -1 -185 -5 -211 -14z"/>
<path d="M3516 1641 c-7 -11 -126 -349 -126 -357 0 -2 59 -4 130 -4 72 0 130
4 130 8 0 9 -120 355 -125 360 -1 2 -6 -1 -9 -7z"/>
<path d="M4220 1510 l0 -143 104 6 c154 9 204 37 213 119 5 55 -20 105 -66
132 -26 15 -59 21 -143 24 l-108 5 0 -143z"/>
</g>
</svg>
